# xmcd
#
# Track frame offsets: 
#        150
#        20983
#        38300
#        56756
#        78450
#        95151
#        110109
#        128564
#        146445
#        165520
#        196705
#
# Disc length: 3459 seconds
#
# Revision: 1
# Processed by: cddbd v1.5.2PL0 Copyright (c) Steve Scherf et al.
# Submitted via: ExactAudioCopyFreeDBPlugin 1.0
#
DISCID=8f0d810b
DTITLE=Jätkäjätkät - Ykstoist Ykstoist
DYEAR=2010
DGENRE=Rap
TTITLE0=Kottii
TTITLE1=Sylissä Taivaan Alla
TTITLE2=Joku Saa Tietää
TTITLE3=Mammona
TTITLE4=Pahan Miehen Polkka
TTITLE5=Hutunkeitto
TTITLE6=Pikkulintu
TTITLE7=Flygareita
TTITLE8=Kommareita
TTITLE9=Ihmepyörä
TTITLE10=Handen Hawaiji - Vääksy [Hidden Track]
EXTD=
EXTT0=
EXTT1=
EXTT2=
EXTT3=
EXTT4=
EXTT5=
EXTT6=
EXTT7=
EXTT8=
EXTT9=
EXTT10=
PLAYORDER=
